<svg id="visual" viewBox="0 0 900 675" width="900" height="675" xmlns="http://www.w3.org/2000/svg" xmlns:xlink="http://www.w3.org/1999/xlink" version="1.1"><rect x="0" y="0" width="900" height="675" fill="#002233"></rect><path d="M0 363L25 354.3C50 345.7 100 328.3 150 303.3C200 278.3 250 245.7 300 224.2C350 202.7 400 192.3 450 215.3C500 238.3 550 294.7 600 308.7C650 322.7 700 294.3 750 271.7C800 249 850 232 875 223.5L900 215L900 0L875 0C850 0 800 0 750 0C700 0 650 0 600 0C550 0 500 0 450 0C400 0 350 0 300 0C250 0 200 0 150 0C100 0 50 0 25 0L0 0Z" fill="#6791a1" stroke-linecap="round" stroke-linejoin="miter"></path></svg>