<svg id="visual" viewBox="0 0 800 675" width="800" height="675" xmlns="http://www.w3.org/2000/svg" xmlns:xlink="http://www.w3.org/1999/xlink" version="1.1"><rect x="0" y="0" width="800" height="675" fill="#002233"></rect><path d="M0 403L22.2 393.3C44.3 383.7 88.7 364.3 133.2 336.7C177.7 309 222.3 273 266.8 249.2C311.3 225.3 355.7 213.7 400 239.2C444.3 264.7 488.7 327.3 533.2 342.8C577.7 358.3 622.3 326.7 666.8 301.5C711.3 276.3 755.7 257.7 777.8 248.3L800 239L800 0L777.8 0C755.7 0 711.3 0 666.8 0C622.3 0 577.7 0 533.2 0C488.7 0 444.3 0 400 0C355.7 0 311.3 0 266.8 0C222.3 0 177.7 0 133.2 0C88.7 0 44.3 0 22.2 0L0 0Z" fill="#6791a1" stroke-linecap="round" stroke-linejoin="miter"></path></svg>