<svg id="visual" viewBox="0 0 900 900" width="900" height="900" xmlns="http://www.w3.org/2000/svg" xmlns:xlink="http://www.w3.org/1999/xlink" version="1.1"><rect x="0" y="0" width="900" height="900" fill="#002233"></rect><path d="M0 376L25 367C50 358 100 340 150 314.2C200 288.3 250 254.7 300 232.5C350 210.3 400 199.7 450 223.5C500 247.3 550 305.7 600 320C650 334.3 700 304.7 750 281.2C800 257.7 850 240.3 875 231.7L900 223L900 0L875 0C850 0 800 0 750 0C700 0 650 0 600 0C550 0 500 0 450 0C400 0 350 0 300 0C250 0 200 0 150 0C100 0 50 0 25 0L0 0Z" fill="#6791a1" stroke-linecap="round" stroke-linejoin="miter"></path></svg>